<svg xmlns="http://www.w3.org/2000/svg" xmlns:xlink="http://www.w3.org/1999/xlink" width="43" height="43" viewBox="0 0 43 43"><defs><path id="hhcca" d="M831 554.12A21.12 21.12 0 0 1 852.12 533h20.66a21.12 21.12 0 0 1 21.12 21.12v19.76A21.12 21.12 0 0 1 872.78 595h-20.66A21.12 21.12 0 0 1 831 573.88z"/><path id="hhccb" d="M869.04 560.8a5.77 5.77 0 1 1 .01-11.54 5.77 5.77 0 0 1-.01 11.55zm7.04-5.76a7.05 7.05 0 1 0-2.54 5.4l5.48 5.48a.64.64 0 0 0 .9 0 .64.64 0 0 0 0-.9l-5.47-5.48a7 7 0 0 0 1.63-4.5z"/></defs><g><g clip-path="url(#clip-C89F8424-6566-4B9D-8BA8-E292A73A7746)" opacity=".92" transform="translate(-851 -533)"><use fill="#fff" xlink:href="#hhcca"/></g><g clip-path="url(#clip-C89F8424-6566-4B9D-8BA8-E292A73A7746)" transform="translate(-851 -533)"><use fill="#263267" xlink:href="#hhccb"/></g></g></svg>