<svg xmlns="http://www.w3.org/2000/svg" xmlns:xlink="http://www.w3.org/1999/xlink" width="15" height="15" viewBox="0 0 15 15"><defs><path id="j502a" d="M679.5 477.5v-5.73h2.55a3.73 3.73 0 0 0 7.38 0h2.54v5.72zm0-12.48h2.5v5.73h-2.5zm8.95 6.24a2.71 2.71 0 1 1-5.43 0 2.71 2.71 0 0 1 5.43 0zm3.52-.51h-2.54a3.73 3.73 0 0 0-6.4-2.05v-3.68h8.94zM679 464a.51.51 0 0 0-.51.51v13.5c0 .28.23.5.51.5h13.5c.28 0 .5-.22.5-.5v-13.5a.51.51 0 0 0-.5-.51z"/><path id="j502b" d="M688.56 467.32h1.4c.3 0 .55-.19.55-.42 0-.22-.24-.41-.54-.41h-1.4c-.3 0-.55.19-.55.41 0 .23.24.42.54.42"/><path id="j502c" d="M685.75 472.14a.88.88 0 1 1 0-1.77.88.88 0 0 1 0 1.77zm-1.87-.88a1.87 1.87 0 1 0 3.74 0 1.87 1.87 0 0 0-3.74 0z"/></defs><g><g opacity=".3" transform="translate(-678 -464)"><g opacity=".3"><use fill="#3d466c" xlink:href="#j502a"/></g><g opacity=".3"><use fill="#3d466c" xlink:href="#j502b"/></g><g opacity=".3"><use fill="#3d466c" xlink:href="#j502c"/></g></g></g></svg>