<svg xmlns="http://www.w3.org/2000/svg" xmlns:xlink="http://www.w3.org/1999/xlink" width="19" height="22" viewBox="0 0 19 22"><defs><path id="19rda" d="M1191.44 226.45h-15.88v-13.79h3.58c.43 0 .78-.34.78-.77v-4.34h11.52zm-13.08-17.56v2.22h-1.9zm.78-2.89a.8.8 0 0 0-.19.02l-.04.02a.64.64 0 0 0-.15.06l-.06.04a.77.77 0 0 0-.15.13l-4.36 5.12a.75.75 0 0 0-.13.21l-.02.08a.92.92 0 0 0-.03.16l-.01.05v15.34c0 .42.35.77.78.77h17.44c.43 0 .78-.35.78-.77v-20.46a.78.78 0 0 0-.78-.77z"/><path id="19rdb" d="M1177.8 214c-.45 0-.8.22-.8.5s.35.5.8.5h11.4c.45 0 .8-.22.8-.5s-.35-.5-.8-.5h-11.4"/><path id="19rdc" d="M1189.2 218h-11.4c-.45 0-.8.22-.8.5s.35.5.8.5h11.4c.45 0 .8-.22.8-.5s-.35-.5-.8-.5"/></defs><g><g transform="translate(-1174 -206)"><g><use fill="#80c100" xlink:href="#19rda"/></g><g><use fill="#80c100" xlink:href="#19rdb"/></g><g><use fill="#80c100" xlink:href="#19rdc"/></g></g></g></svg>