<svg xmlns="http://www.w3.org/2000/svg" xmlns:xlink="http://www.w3.org/1999/xlink" width="15" height="16" viewBox="0 0 15 16"><defs><path id="ckt1a" d="M678 381.49v-13.55h13.55v13.55z"/><path id="ckt1b" d="M679.5 379.5v-5.73h2.55a3.73 3.73 0 0 0 7.38 0h2.54v5.72zm0-12.48h2.5v5.73h-2.5zm8.95 6.24a2.71 2.71 0 1 1-5.43 0 2.71 2.71 0 0 1 5.43 0zm3.52-.51h-2.54a3.73 3.73 0 0 0-6.4-2.05v-3.68h8.94zM679 366a.51.51 0 0 0-.51.51v13.5c0 .28.23.5.51.5h13.5c.28 0 .5-.22.5-.5v-13.5a.51.51 0 0 0-.5-.51z"/><path id="ckt1c" d="M688.56 369.32h1.4c.3 0 .55-.19.55-.42 0-.22-.24-.41-.54-.41h-1.4c-.3 0-.55.19-.55.41 0 .23.24.42.54.42"/><path id="ckt1d" d="M685.75 374.14a.88.88 0 1 1 0-1.77.88.88 0 0 1 0 1.77zm-1.87-.88a1.87 1.87 0 1 0 3.74 0 1.87 1.87 0 0 0-3.74 0z"/></defs><g><g transform="translate(-678 -366)"><g><use fill="#aadc14" xlink:href="#ckt1a"/></g><g><use fill="#3d466c" xlink:href="#ckt1b"/></g><g><use fill="#3d466c" xlink:href="#ckt1c"/></g><g><use fill="#3d466c" xlink:href="#ckt1d"/></g></g></g></svg>