<svg xmlns="http://www.w3.org/2000/svg" xmlns:xlink="http://www.w3.org/1999/xlink" width="28" height="20" viewBox="0 0 28 20"><defs><path id="g5l2a" d="M1360 263v-17h25v17z"/><path id="g5l2b" d="M1384.57 265h-20.14a2.37 2.37 0 0 1-2.43-2.31V250.3a2.37 2.37 0 0 1 2.43-2.31h20.14a2.37 2.37 0 0 1 2.43 2.31v12.38a2.37 2.37 0 0 1-2.43 2.31"/><path id="g5l2c" d="M1359 245h27v19h-27zm1.04 17.94h24.92v-16.89h-24.92z"/><path id="g5l2d" d="M1386 246.07L1372.5 260l-13.5-13.93V245h27zm-25.53 0l12.03 12.42 12.03-12.42z"/></defs><g><g transform="translate(-1359 -245)"><g><use fill="#fff" xlink:href="#g5l2a"/></g><g><use fill="#aadc14" xlink:href="#g5l2b"/></g><g><use fill="#000b50" xlink:href="#g5l2c"/></g><g><use fill="#000b50" xlink:href="#g5l2d"/></g></g></g></svg>