<svg xmlns="http://www.w3.org/2000/svg" xmlns:xlink="http://www.w3.org/1999/xlink" width="46" height="30" viewBox="0 0 46 30"><defs><path id="uiara" d="M75.89 14.4A15.43 15.43 0 0 1 80 25c0 8.27-6.3 15-14.04 15-1.1 0-2.85-.23-3.3-.43a1.4 1.4 0 0 1-.85-1.3c0-.78.6-1.4 1.33-1.4.44 0 1.03.35 2.82.35 6.3 0 11.43-5.49 11.43-12.22 0-3.26-1.19-6.33-3.35-8.64a11 11 0 0 0-8.08-3.58c-3.55 0-6.84 1.73-9.03 4.74l-8.2 10.37a3.89 3.89 0 0 1-2.95 1.4c-2.2-.01-4-1.93-4-4.29 0-2.36 1.77-4.3 4.14-4.3 1.1 0 1.43.75 1.43 1.26 0 .64-.5 1.2-1.1 1.2l-.47-.02c-.96 0-1.75.83-1.75 1.86 0 1.03.79 1.86 1.75 1.86.51 0 1.03-.24 1.38-.72l7.46-9.98A13.83 13.83 0 0 1 65.96 10c3.75 0 7.28 1.56 9.93 4.4zm-9.93 17.85c3.74 0 6.78-3.25 6.78-7.25s-3.04-7.25-6.78-7.25c-1.94 0-3.8.9-5.08 2.45l-9.23 10.44c-.32.35-2.3 2.8-5.87 2.8-4.35 0-7.9-3.8-7.9-8.44 0-4.65 3.55-8.43 7.9-8.43.48 0 1.08.05 1.48.15.5.12.88.63.88 1.2 0 .72-.56 1.21-1.1 1.21-.3 0-.53-.14-1.26-.14-3.1 0-5.63 2.7-5.63 6.01 0 3.32 2.53 6.01 5.63 6.01 1.5 0 2.9-.62 3.97-1.75l9.46-11.22a9.15 9.15 0 0 1 6.75-3.07c5.18 0 9.39 4.5 9.39 10.03 0 5.53-4.21 10.03-9.4 10.03a8.4 8.4 0 0 1-2.3-.31c-.51-.16-.9-.73-.9-1.32 0-.77.59-1.4 1.3-1.4.38 0 .84.25 1.9.25zm0-9.53c-.67 0-1.09.26-1.52.7L53.91 34.09a11.3 11.3 0 0 1-8.13 3.5c-3.15 0-6.1-1.32-8.33-3.7A12.94 12.94 0 0 1 34 25c0-6.94 5.28-12.58 11.78-12.58 1.2 0 2.23.22 2.23.22.53.1.93.62.93 1.2 0 .67-.53 1.25-1.19 1.2-.27 0-.96-.2-1.97-.2-5.25 0-9.52 4.55-9.52 10.16 0 2.72 1 5.27 2.8 7.19a9.16 9.16 0 0 0 6.72 2.98c2.5 0 4.62-1.02 6.38-2.63 1.97-1.82 10.35-11 10.35-11a4.62 4.62 0 0 1 3.45-1.6c2.61 0 4.74 2.27 4.74 5.06 0 2.8-2.13 5.07-4.74 5.07-.46 0-1.06-.1-1.48-.26-.41-.17-.8-.73-.8-1.29 0-.58.34-1.08.82-1.29.35-.15.85-.04.96-.01 0 0 .34.06.5.06 1.18 0 2.14-1.02 2.14-2.28 0-1.26-.96-2.28-2.14-2.28z"/></defs><g><g transform="translate(-34 -10)"><use fill="#d5d6de" xlink:href="#uiara"/></g></g></svg>