<svg xmlns="http://www.w3.org/2000/svg" xmlns:xlink="http://www.w3.org/1999/xlink" width="22" height="23" viewBox="0 0 22 23"><defs><path id="i052a" d="M1317.8 186h19.2v-20h-19.2z"/><path id="i052c" d="M1334.6 177.83v-4.63a7.2 7.2 0 1 0-14.4 0v4.63l-2.4 5.77H1325a2.4 2.4 0 0 0 4.8 0H1337z"/><path id="i052d" d="M1316.31 182.48l2.12-5.12.07-.16h14l.07.16 2.12 5.12zm7.44.88h3.5c0 .97-.79 1.76-1.75 1.76s-1.75-.79-1.75-1.76zm8.75-11.44v4.4h-14v-4.4a7.03 7.03 0 0 1 7-7.04c3.86 0 7 3.16 7 7.04zm.88 5.1v-5.1a7.9 7.9 0 0 0-7.88-7.92 7.9 7.9 0 0 0-7.88 7.92v5.1l-2.62 6.34h7.88a2.63 2.63 0 0 0 2.62 2.64 2.63 2.63 0 0 0 2.63-2.64h7.87z"/><clipPath id="i052b"><use xlink:href="#i052a"/></clipPath></defs><g><g transform="translate(-1315 -164)"><g><g/><g clip-path="url(#i052b)"><use fill="#fb8b21" xlink:href="#i052c"/></g></g><g><use fill="#3d466c" xlink:href="#i052d"/></g></g></g></svg>