<svg xmlns="http://www.w3.org/2000/svg" xmlns:xlink="http://www.w3.org/1999/xlink" width="157" height="39" viewBox="0 0 157 39"><defs><path id="mqmya" d="M58.17 6.71A19.52 19.52 0 0 1 39.8 39.44a1.8 1.8 0 0 1-1.18-1.7c0-1 .82-1.82 1.85-1.82.61 0 1.43.46 3.9.46A15.9 15.9 0 0 0 55.62 9.27c-3-3-6.99-4.65-11.23-4.65-4.93 0-9.5 2.24-12.54 6.15L20.46 24.25a5.56 5.56 0 0 1-9.66-3.75 5.62 5.62 0 0 1 5.75-5.59c1.54 0 2 .98 2 1.63 0 .84-.7 1.57-1.55 1.57-.2 0-.4-.03-.64-.03a2.43 2.43 0 0 0 0 4.84c.7 0 1.43-.32 1.91-.94L28.64 9C32.3 4 38.19 1 44.38 1c5.21 0 10.1 2.03 13.79 5.71zM44.38 29.92a9.43 9.43 0 0 0 0-18.84 9.43 9.43 0 0 0-7.05 3.18L24.5 27.83c-.44.45-3.19 3.63-8.15 3.63a10.97 10.97 0 0 1 0-21.92c.66 0 1.5.07 2.05.2.71.15 1.23.81 1.23 1.56 0 .93-.78 1.57-1.53 1.57-.43 0-.74-.19-1.75-.19a7.83 7.83 0 0 0 0 15.64c2.08 0 4.04-.81 5.51-2.29L35 11.45a13.06 13.06 0 0 1 22.42 9.05 13.06 13.06 0 0 1-16.25 12.63 1.81 1.81 0 0 1 .58-3.52c.5 0 1.14.31 2.63.31zm0-12.39c-.92 0-1.51.35-2.1.91L27.65 32.32a16.23 16.23 0 0 1-11.3 4.54c-4.36 0-8.47-1.7-11.56-4.8A16.38 16.38 0 0 1 19.45 4.43c.74.14 1.3.81 1.3 1.57 0 .86-.74 1.61-1.66 1.56-.37-.02-1.32-.28-2.73-.28A13.23 13.23 0 0 0 7 29.84c2.5 2.5 5.82 3.87 9.35 3.87 3.47 0 6.41-1.32 8.86-3.41 2.74-2.36 14.37-14.31 14.37-14.31a6.6 6.6 0 1 1 4.8 11.1 6.6 6.6 0 0 1-2.06-.34 1.9 1.9 0 0 1-1.1-1.67c0-.76.46-1.4 1.12-1.68a2.6 2.6 0 0 1 1.33-.02c.01 0 .48.09.7.09a2.97 2.97 0 0 0 0-5.94z"/><path id="mqmyb" d="M131.15 18.2a6.63 6.63 0 0 0-6.3-5.04 6.63 6.63 0 0 0-6.28 5.04zm-6.29-8.82a10.6 10.6 0 0 1 10.63 10.79c0 .49-.04 1.04-.1 1.51h-16.92a6.66 6.66 0 0 0 6.4 5.47c2.24 0 4.1-1.02 5.63-2.8l3.38 2.4a11.39 11.39 0 0 1-9.02 4.2 10.78 10.78 0 1 1 0-21.57zm-18.6.28h4.42V22.5c0 4.7-3.4 8.45-9.29 8.45-5.89 0-9.29-3.75-9.29-8.45V9.66h4.42V22.2c-.01 3.18 1.91 4.82 4.87 4.82s4.89-1.64 4.87-4.82zm50 16.96v4.06H142.8c-3 0-5.54-2.44-5.54-5.44 0-2.31 1.56-4.3 3.6-5.07l10.34-3.79a1.38 1.38 0 0 0-.5-2.67h-11.21V9.66h11.33a5.43 5.43 0 0 1 1.94 10.5l-10.33 3.8c-.53.18-.9.7-.9 1.28 0 .76.63 1.38 1.39 1.38zm-70.54-6.45a5.54 5.54 0 0 1 3.6 5.07c0 3-2.54 5.44-5.54 5.44H70.31v-4.06h13.35a1.38 1.38 0 0 0 .5-2.67l-10.34-3.78a5.44 5.44 0 0 1 1.94-10.51H87.1v4.05H75.88a1.38 1.38 0 0 0-.5 2.67z"/></defs><g><g clip-path="url(#clip-CDE6B7FC-5755-470D-8B98-0E0054ED3F12)" transform="translate(0 -1)"><use fill="#fff" xlink:href="#mqmya"/></g><g clip-path="url(#clip-359549AC-E191-40DD-9522-185629B9D5FB)" transform="translate(0 -1)"><use fill="#fff" xlink:href="#mqmyb"/></g></g></svg>